<?xml version="1.0" encoding="utf-8"?>
<!-- Generator: Adobe Illustrator 21.0.0, SVG Export Plug-In . SVG Version: 6.00 Build 0)  -->
<svg version="1.1" id="Слой_1" xmlns="http://www.w3.org/2000/svg" xmlns:xlink="http://www.w3.org/1999/xlink" x="0px" y="0px"
	 viewBox="0 0 761.3 150.7" style="enable-background:new 0 0 761.3 150.7;" xml:space="preserve">
<style type="text/css">
	.st0{fill:#FFFFFF;}
	.st1{fill:#74CAED;}
	.st2{fill:#59A0D8;}
</style>
<path class="st0" d="M6.3,85c0.1,0.1,0.2,0.2,0.3,0.2c0.3-0.3,0.6-0.6,0.8-1c7-8.2,14.9-15.6,23.5-22.1c2-1.5,2.2-1.4,2.9,1.1
	c1.1,3.8,1,7.6,0.1,11.4c-0.1,0.6-0.2,1.2-0.4,2c2-1.9,3.9-3.8,5.9-5.6c3.7-3.4,7.5-6.6,11.8-9.2c0.2-0.1,5.4-2.8,7.2-3.5
	c4.6-3.7,33-31.9,52.4-43c0.1,0.1,0.1,0.2,0.2,0.3c-4.1,3.1-8.2,6.1-12.1,9.3c-4,3.3-7.8,6.7-11.6,10.2c-3.7,3.5-7.3,7.2-10.7,11
	c-3.4,3.8-6.7,7.8-10.1,11.9c3.5,1.4,5.3,4.1,6.8,7.4C80.2,52,89.3,40.6,100,30.3C90,43.5,81.1,57.2,75.5,73.2
	c1.9-1,3.5-2.1,5.2-2.7c2.2-0.7,2.7-2.5,3.4-4.2c3.7-8.9,8.3-17.2,14.2-24.9c0.3-0.3,0.6-0.6,1-0.9C95,49,91.6,57.8,89.2,67.3
	c6.1-1.3,11.7-0.7,16.8,3c2.4,1.8,4.3,4.1,5.7,6.7c-0.1,0.1-0.1,0.2-0.2,0.4c-0.7-0.3-1.5-0.4-2.1-0.8c-2.7-1.7-5.5-3.1-8.7-3.3
	c-1.5-0.1-1.8,0.1-1.9,1.7c-0.1,1.1,0,2.2,0,3.5c-1.7-0.6-3.1-1.3-4.6-1.6c-1.5-0.4-3.1-0.4-4.6-0.6c-0.7-0.1-0.9,0.3-0.9,1
	c-0.1,1.4-0.3,2.9-0.2,4.3c0,1.1-0.4,1.3-1.3,1.2c-2.1-0.3-4.2-0.6-6.3-0.9c-2.6-0.3-2.8,0-2.7,2.6c0.1,1.5,0.3,3,0.5,4.5
	c0.1,0.9-0.3,1.2-1.1,1.3c-1.9,0.2-3.9,0.5-5.8,0.7c-0.9,0.1-1.3,0.6-1.1,1.5c0.4,1.7,0.7,3.4,1,5.1c0.3,1.6-0.2,2.9-1.8,3.4
	c-1.3,0.5-2.6,0.7-3.9,1c-0.9,0.2-1.1,0.6-0.9,1.4c0.2,0.9,0.4,1.8,0.6,2.7c0.5,2.4,0,3.1-2.3,3.7c-0.7,0.2-1.4,0.4-2.1,0.5
	c-1,0.1-1.2,0.7-1,1.5c0.1,1,0.3,1.9,0.4,2.9c0.3,2.5-0.8,3.8-3.4,3.6c-0.6,0-1.2-0.1-1.6-0.3c-1.2-0.5-1.4,0.1-1.6,1
	c-0.2,1-0.3,2-0.5,3c-0.2,1.1-0.5,2.1-1.6,2.5c-1.1,0.4-1.9-0.3-2.6-1c-0.2-0.2-0.4-0.4-0.5-0.6c-1-1.2-1.5-1.2-2.4,0.1
	c-0.6,1-1.1,2-1.6,3.1c-0.5,1.2-1.1,1.4-2,0.5c-0.9-0.9-1.6-2-2.5-3.3c-0.9,0.6-2,1.3-3.1,2.1c-1.4-1.2-1.6-2.9-1.8-4.8
	c-0.9,0.1-1.8,0.2-2.7,0.3c-0.3-2,0.6-3.6,1.9-5.2c-0.5-0.2-0.9-0.4-1.4-0.5c-1.3-0.2-1.9-1.1-1.9-2.4c0-0.8,0.4-1,1.1-0.7
	c0.1,0.4,0.1,0.7,0.2,1.2c0.7-0.7,1.3-1.3,1.9-1.9c0.6-0.6,0.3-1-0.4-1.1c-1.2-0.3-1.3-0.6-0.4-1.5c1.4-1.3,2.8-2.6,4-3.8
	c-2.5,0-5.5,1.7-7.1,4.2c-2.8,4.4-3.4,9.1-1.4,13.9c1.3,3.3,4.1,5.4,7.3,6.9c5.2,2.5,10.8,2.9,16.5,2.3c5-0.6,9.8-2.1,14.4-4.3
	c0.4-0.2,0.8-0.3,1.2-0.4c-0.3,4-0.5,7.9-0.7,11.7c0.8,0.6,1.5,1.2,2.2,1.7c-0.4,1.2-1.7,2.5-2.8,2.6c0.4-0.5,0.7-0.9,0.9-1.3
	c0.2-0.3,0.4-0.7,0.5-1c0-0.2-0.1-0.5-0.3-0.6c-0.1-0.1-0.5,0.1-0.6,0.2c-0.5,0.5-1,1.1-1.6,1.2c-0.6-0.2-1.2-0.5-1.8-0.5
	c-4.9,0.4-9.7,0.7-14.6,1.2c-5.2,0.5-10.5,1.1-15.7,1.7c-1.9,0.2-3.8,0.6-5.8,0.9c0.5,0,1.1,0.1,1.6,0.1c12.2-0.1,24.4-0.2,36.6-0.4
	c0.5,0,1-0.4,1.5-0.7c0.5-0.2,1-0.4,1.6-0.7c0.3-0.6,0.1-1.8,1.3-2.2c0.4-0.1,0.4-1.3,0.6-2c1.4-0.3,2.5,0.6,3.3,2.8
	c1.8-1.6,1.2-4.2-1.5-6.4c0.4-0.9,0.9-1.9,1.3-2.9c0.4-1,0.6-2,0.9-3.2c-0.9,0-1.7,0-2.7,0c1.1-1.5,2-2.8,3.1-4.4
	c-1.1,0.4-2,0.7-2.9,0.9c-0.4-2,2.4-4,5-3.8c-0.3,1-0.6,1.9-0.8,2.8c1.5,1,1.5,1,0.5,3.6c0.6,0.8,1.2,1.5,1.9,2.3
	c0.2-1.3,0.4-2.5,0.6-3.8c0.3-2.2,0.7-4.3,2.1-6.1c1.2-1.6,1.9-1.7,3.8-1c1,0.3,2.2,0.3,3.3,0.4c0.9,0,1.7-0.1,2.7-0.2
	c0.8,4.8,3.7,9,4.1,13.9c0.1,1.5,1,3,1.6,4.4c0.1,0.4,0.3,0.7,0.6,1.2c-0.7,0.1-1.3,0.1-1.8,0.2c-2.7,0.1-5.4,0.1-8,0.2
	c-0.6,0-1,0-1.1-0.8c-0.4-2.9-2.4-4.9-5.3-5.3c-1.9-0.2-3.8-0.2-5.6,1.2c3.3,1.3,4.5,4,4.7,7.6c1.6-1.9,1.2-3.8,1-5.9
	c3.5,1.7,3.1,4.7,3,7.6c3.3,0,6.4,0,9.6,0c8.6-0.1,17.3-0.2,25.9-0.3c4,0,8-0.1,12-0.1c0.9,0,1.2-0.4,1.4-1.1
	c0.6-2.6,0.6-5.2-0.5-7.7c-0.3-0.7-0.3-1.1,0.5-1.4c1.1-0.5,2.2-1,3-1.3c0.1-1.5,0-2.9,0.5-4.1c0.4-0.9,1.5-1.5,2.4-2.4
	c0.1,2.1,0.2,3.8,0.3,5.5c0.1,0,0.1,0,0.2,0c0.8-2.8,1.6-5.5,2.4-8.2c0.1-0.3,0.6-0.8,0.9-0.8c2.1-0.1,4.2,0.1,6.2,0
	c2-0.1,4-0.4,6.3-0.7c0,6.4,1.4,12.6,3.3,18.7c-1,0-1.8,0-2.6,0c-1.6,0-3.3-0.1-4.9-0.1c-0.7,0-1.1-0.2-1.3-0.9
	c-0.7-2.4-3.4-4.4-6-4.1c-0.4,0-0.8-0.1-1.1-0.2c-1.8-1.1-2.8-1.1-5-0.2c3.3,2,5.8,4.4,5.4,8.7c1.7-1,2.1-2.5,2.2-4.3
	c2.3,0.9,2.5,2.9,3.3,4.8c17.7-0.2,35.4-0.3,53.1-0.5c0,0,0-0.1,0-0.1c-3.1-0.3-6.1-0.6-9.2-0.8c-4.7-0.3-9.5-0.7-14.2-0.9
	c-1.1-0.1-1.6-0.4-1.6-1.6c0-2.6-1-4.8-3.6-5.8c-1.3-0.5-2.8-0.4-4.2-0.5c-0.8,0-1.6,0.2-2.5,0.3c-0.1-0.9-0.2-1.7-0.2-2.5
	c-0.1-5.2,0.3-10.3,1.1-15.4c0.2-1,0.6-1.8,1.6-2.3c2.2-1,3.4-3,4.1-5.2c0.3-0.9,0.6-1.6,1.4-2.2c1.7-1.3,2.9-3.1,2.9-5.2
	c0-2.1,0.8-4,1.2-6c0.2-0.9,0-1.8-0.1-2.8c-1.2,3-3.3,4.8-6.5,5.4c-2.1,0.3-4.9-0.7-6.2-2.3c1.7-0.2,3.4-0.2,5.1-0.5
	c4-0.8,6.8-3,7-7.3c0-0.7-0.1-1.4-0.3-2.1c-0.4,3.6-2.8,5-5.4,5.5c-2.2,0.4-5.9-0.7-6.7-2.9c0.7,0.1,1.3,0.2,1.9,0.1
	c1.6-0.2,3.4-0.1,4.9-0.7c2.6-1.1,3.7-3.6,3.4-6.4c-0.1-0.9-0.3-1.8-0.6-2.7c-0.1,3-1.2,5.4-4.4,6.2c-1.8,0.5-3.7-0.2-5.3-1.8
	c2.9-0.2,5.5-0.8,6.8-3.6c0.8-1.7,0.6-3.5-0.1-5.3c-0.3,2.8-1.6,4.9-4.6,5.3c-1.3,0.2-2.4-0.4-3.3-1.7c2.6-0.2,4.4-1.3,4.9-3.8
	c0.3-1.4-0.1-3-1.1-4.1c0.2,2,0,3.9-2,4.6c-1.6,0.6-3,0.1-4.4-1.3c1.8,0.1,2.9-0.9,3.3-2.3c0.4-1.1,0.4-2.3-0.5-3.6
	c0,1.8-0.8,2.9-2.4,3.3c-1.2,0.3-2.2-0.3-3.2-1.2c1.4-0.3,2.8-0.4,3-2.1c0.1-1-0.1-2-1-2.7c-0.7,2.8-1.9,3.5-3.8,2.1
	c1.2-1.8,1.3-3,0.5-4c-0.6,0.7-1.1,1.5-1.9,1.9c-0.8,0.4-1.9,0.2-2.8-0.7c1.3-0.7,1.7-1.7,1.4-3.3c-1.3,1.1-2.6,1.4-3.9,0.3
	c0.2-0.9,0.4-1.7,0.7-2.5c-1.4,0.6-2.6,1.1-4,0.5c0-0.7,0-1.3,0-2.2c-1.5,1.2-3.1,1.1-4.7,0.8c-1-0.2-1.2-0.6-0.9-1.5
	c0.4-0.8,0.8-1.6,1.3-2.6c-0.3-0.1-0.7-0.2-1.1-0.3c-0.8-0.2-1.6-0.5-2.4-0.7c-0.7-0.2-0.8-0.8-0.5-1.3c0.6-0.9,1.2-1.7,1.9-2.6
	c-1.2-0.1-2.4-0.2-3.6-0.4c-0.7-0.1-1.3-0.5-2-0.7c0.3-0.6,0.6-1.3,1-1.9c0.3-0.4,0.7-0.6,1.2-1c-2.2-1.2-4.4-2.3-6.1-4.6
	c2.5,0,4.7,0,6.8,0c-0.7-1.5-1.5-2.9-2.1-4.4c-0.5-1.3-0.2-1.6,1.2-1.7c0.5,0,1,0,1.6-0.1c0.5,0,1,0,1.6,0c-3-2.2-5.9-4.3-8.9-6.4
	c0.5,1.5,1.1,3,1.6,4.5c-4.6-3.2-6-8-6.8-13.4c-2.2,4.1-1.8,8.2-0.8,12.4c-1.7,0-3.2,0-4.7,0c0,2.3,1.1,4.2,2,6
	c-1.5,1.1-2.9,2.2-4.4,3.3c-1,0.7-1.2,1.6-1.1,2.8c0.6,6.1,2.4,11.8,5,17.2c2.2,4.7,5.1,8.8,8.9,12.3c0.1,0.1,0.2,0.1,0.3,0.1
	c0.1-1.7,0-3.3,0.4-4.9c0.4-1.6,1.1-3.2,1.8-4.7c0.3-0.8,1-1.1,1.8-0.5c0.6,0.4,1.2,0.7,1.8,1.1c-0.7,1-1.3,1.9-1.9,2.9
	c-0.4,0.7-0.4,1.1,0.5,1.5c1.1,0.4,2.1,1,3.2,1.5c-0.5,1-1.1,2-1.5,3c-0.2,0.5,0,1.2,0.2,1.6c0.5,0.8,1.3,1.5,1.9,2.3
	c-1.3,2.5-4.9,2.6-7,1.7c-2.4-1-4.2-2.9-5.8-4.9c-4.2-5.2-7.4-10.9-9.9-17.1c-1.9-4.8-3.1-9.9-3.8-15c-0.1-0.6-0.2-2.7-0.2-3.3
	c-0.3-3.7,0.1-7.4,1-10.9c1.4-5.2,4.1-9.7,8.3-13.2c4.7-3.9,10.1-6.1,16-7.3c0.9-0.2,1.7-0.6,2.6-0.9c0-0.2,0-0.3,0-0.5
	c-0.6-0.2-1.2-0.6-1.8-0.7c-6.4-1.6-13-1.9-19.5-1.3c-4.3,0.3-8.6,1.1-12.9,1.9c-6.5,1.1-12.9,3-19.1,5.3c-6.9,2.5-13.6,5.3-20,9
	c-5.4,3.1-10.7,6.4-16,9.7c-0.3,0.2-0.6,0.4-0.7,0.8c1.1-0.6,2.2-1.2,3.3-1.7c5.8-2.8,11.5-5.8,17.4-8.4c4.4-2,8.8-3.8,13.4-5.3
	c4.6-1.6,9.4-2.8,14.1-4.1c5.3-1.5,10.8-2.1,16.3-2.4c0.5,0,1,0,1.6,0.3c-1.5,0.5-3,1-4.5,1.5c-4,1.4-8,2.6-11.9,4.1
	c-4.8,1.9-9.6,3.8-14.3,6c-5.1,2.3-10.1,4.9-15,7.5c-7.4,4-14.4,8.5-21.2,13.3c-1.5,1-2.9,2-4.3,3.2c-0.8,0.6-8.1,6.4-8.4,6.6
	c-7.5,6.2-14.6,12.8-21.2,20c-0.3,0.3-0.6,0.5-1.1,0.6c0.9-1.5,1.8-3.1,2.8-4.6c4.3-6.9,9.3-13.4,14.7-19.6c0.4-0.5,1.1-0.9,0.3-1.8
	C20.7,55.5,11.9,69.2,6.3,85z M125,32.6c2.7-0.4,8.3,1,9,2.5c-1.3,0-2.5,0-4,0c1.1,0.9,1.8,1.5,2.8,2.3
	C129.3,37.2,125.8,35,125,32.6z M134.3,45.2c-3.3,0.8-9.2-2-9.8-4.3c1-0.5,4-1,5.3-0.4c0.9,0.4,1.6,1.4,2.3,2.1
	c-0.1,0.1-0.1,0.2-0.2,0.3c-0.8-0.1-1.6-0.2-2.4-0.3c0,0.1-0.1,0.1-0.1,0.2C131,43.6,132.5,44.3,134.3,45.2z M135.4,49.8
	c-1.3,1.8-5.2,1.4-6.9-0.3c1.1-1.8,3.4-2.6,5.5-1.7c-0.8,0.5-1.5,0.9-2.4,1.5c0.8,0.1,1.4,0.3,1.9,0.3
	C134.1,49.7,134.7,49.8,135.4,49.8z M136.7,53.2c0.8,0.3,1.5,0.6,2.4,1c-0.3,0.3-0.4,0.5-0.6,0.6c-1.3,1-2.6,0.4-4,0.1
	c-0.9-0.2-0.9-0.7-0.5-1.3c0.3-0.5,0.8-1,1.3-1.4c0.6-0.5,1.4-1,2.4-0.3C137.3,52.3,137,52.8,136.7,53.2z M140.2,59.6
	c-0.7,0-1.4,0.2-2,0.1c-0.4-0.1-1.1-0.8-1-1c0.2-0.6,0.7-1.1,1.2-1.6c0.2-0.2,0.6-0.1,1.1-0.1c-0.2,0.6-0.3,1-0.4,1.5
	c0.4,0.1,0.8,0.2,1,0.4C140.2,58.9,140.1,59.3,140.2,59.6z M56.8,125.2c-0.4,0.3-0.7,0.8-1.1,0.9c-0.3,0.1-0.7-0.3-1-0.5
	c0.3-0.4,0.7-0.7,1.2-1.3C56.3,124.8,56.6,125,56.8,125.2z M60.7,123.2c-0.3,0-0.7-0.4-0.9-0.5c0-1.2,0.8-2.1,1.7-2.1
	c0.3,0,0.7,0.5,0.8,0.8C62.5,122.4,61.7,123.2,60.7,123.2z M65.3,117.6c-0.8,0.7-1.4,0.5-1.6-0.6c-0.2-1.1,0.2-1.7,1.7-2.3
	C66.1,116.1,66.1,116.9,65.3,117.6z M67.5,113.5c-0.8-1.5-0.5-2.8,0.6-3.6c0.9-0.6,1.5-0.4,1.6,0.7C70,111.8,69.2,113.2,67.5,113.5z
	 M106.3,34.3c-1,4.4-2.1,8.8-2.9,13.2c-0.8,4.5-1.2,9-1.8,13.5C99.7,51.5,101.7,42.6,106.3,34.3z M117.2,83.2
	c-2.4,0.2-4.3-0.7-4.7-2.4C114.5,80.5,116.9,81.6,117.2,83.2z M115.9,111.6c-0.1,0.1-0.3,0.3-0.4,0.6c-0.2-0.3-0.7-0.5-0.7-0.8
	c-0.1-0.7-0.5-0.9-1.1-1c-0.2,0-0.4-0.4-0.6-0.7c0.2-0.2,0.5-0.4,0.7-0.4C115,109.2,115.8,109.9,115.9,111.6z M111.4,97.7
	c1.9-0.3,3.6,0.9,4.1,3C113.3,100.7,111.5,99.4,111.4,97.7z M114,114.6c-0.3,0.2-0.5,0.5-0.8,0.5c-1.2,0.1-2-0.7-2.1-2.3
	c0.1-0.1,0.3-0.4,0.5-0.7c0.2,0.3,0.4,0.6,0.7,0.9c0.3,0.3,0.7,0.6,1,0.9C113.5,114.1,113.7,114.4,114,114.6z M109.1,91.7
	c-0.1-0.6,0-1.3,0-2c0.6,0.1,1.3,0.1,1.8,0.3c0.6,0.3,1.2,0.7,1.7,1.2c0.3,0.2,0.3,0.7,0.6,1.2c-0.8-0.2-1.3-0.3-1.9-0.4
	c0.2,0.3,0.2,0.5,0.3,0.6c0.5,0.6,1,1.2,1.6,1.9C111.4,95.1,109.6,93.8,109.1,91.7z M118.4,87.3c-0.7-0.1-1.4-0.3-2.1-0.4
	c0.4,0.9,0.8,1.6,1.2,2.5c-0.4,0-0.5,0.1-0.7,0.1c-1.7-0.2-3-2.7-2.3-4.3c0.1-0.2,0.4-0.4,0.6-0.4C116.6,84.7,117.9,85.8,118.4,87.3
	z M120.2,93c-0.8,0-1.6-0.1-2.5-0.1c0.5,0.8,0.9,1.4,1.3,2.1c-1.9,0.6-3.6-0.9-3.5-2.9c0-0.3,0.2-0.8,0.4-0.9
	C117.2,90.4,119.7,91.4,120.2,93z M123,100.6c-1.4,0.9-4.7-0.1-5.4-1.7c-0.1-0.3,0-0.7,0.2-1c0.7-1.2,2-1.4,3.8-0.3
	c-0.5,0.3-1,0.6-1.6,0.9c1.3,0.5,2.4,0.9,3.6,1.4C123.3,100.3,123.2,100.5,123,100.6z M128.2,109.1c-1.9,0.6-3.8,0-4.8-1.6
	C125,106.3,127.5,107.2,128.2,109.1z M121.8,105.1c-2.1,0.8-4.6-0.1-5.5-2.1C118.5,102.9,120.3,103.6,121.8,105.1z M124.5,85.7
	c-0.4,0.2-0.9,0.4-1.5,0.7c-0.8-0.4-1.7-0.7-2.6-1.2c-0.2-0.1-0.3-0.7-0.2-1.1c0-0.1,0.5-0.4,0.8-0.3c0.9,0.1,1.8,0.3,2.6,0.6
	C124.1,84.6,124.3,85.3,124.5,85.7z M126.7,90.1c-1-0.3-2.1-0.6-3.1-0.9c0,0.1,0,0.2,0,0.3c0.5,0.6,1.1,1.2,1.6,1.9
	c-1.5,1.2-4.2-0.3-4.2-2.2c0-0.3,0.3-0.8,0.5-0.9c1-0.3,2.1-0.7,3.2-0.7C126.2,87.5,126.9,88.6,126.7,90.1z M127.7,94.2
	c-0.9,0.2-1.8,0.5-2.8,0.8c0.9,0.8,1.6,1.4,2.5,2.1c-2.3,1.3-4.1,0.3-5.4-2.8C123.6,92.8,126.8,92.8,127.7,94.2z M131.5,92.3
	c0.7,0.7,1.4,1.3,2.2,2c-2.1,0.4-4.4-0.6-5.2-2.4c-0.1-0.2,0-0.8,0.2-1c1.2-1.1,3.4-1.2,5.1-0.1C133,91.3,132.3,91.8,131.5,92.3z
	 M133.8,88.3c-2-0.1-4,0.1-5.3-2C130.9,85.7,133.6,86.7,133.8,88.3z M131.5,97.8c2.5,1.2,2.5,1.2,2.6,2.2c-1.5,0.4-4.3-0.3-5.2-1.4
	c-0.2-0.3-0.5-0.8-0.4-1.1c0.7-1.8,3.9-2.3,5.2-0.7C133.1,97,132.4,97.4,131.5,97.8z M138.1,98.5c1.3-0.2,2.5-0.3,3.7-0.4
	c0,2.3-1.7,3.4-3.7,2.4c-1-0.5-1.9-1.3-2.8-2c0.5-2,2.9-3,4.5-1.9C139.4,97.1,138.9,97.7,138.1,98.5z M141.8,105
	c-0.8,1.2-1.9,1.8-3.3,1.7c-1.5-0.1-2.6-0.8-3.4-1.9c-0.1-0.1-0.1-0.5,0-0.7c0.9-1.5,3.9-2.7,5.4-1.2c-0.7,0.4-1.5,0.8-2.2,1.2
	c0,0.1,0.1,0.2,0.1,0.3c1.1,0,2.2,0,3.4,0C141.8,104.8,141.8,104.9,141.8,105z M138.3,91c-0.3,0.5-0.6,1-0.9,1.5
	c1.1,0.1,2.1,0.1,3.3,0.2c-0.5,1.5-1.4,2-2.5,2.1c-1.2,0-2.3-0.5-3.2-1.4c-0.1-0.1-0.1-0.4,0-0.5C135.4,91.5,136.9,90.7,138.3,91z
	 M139.5,87.5c0.6,0.2,1.2,0.3,1.7,0.5c0.1,0.1,0.2,0.3,0.2,0.4c-0.6,0.3-1.2,0.8-1.9,1c-1.1,0.3-2.1-0.2-3-0.9
	c-0.1-0.1-0.1-0.3-0.1-0.4c0.2-1.1,2.6-2.4,3.7-1.9C139.9,86.5,139.7,87,139.5,87.5z M142.7,80.3c0.5,1.6,0,2.6-1.5,3
	C140.8,82,141,81.5,142.7,80.3z M145.3,68.8c0.4,0.7,0.8,1.4,1.2,2.1c0.5-0.1,1.1-0.2,1.8-0.4c0.1,1.4-0.5,2.4-1.8,2.9
	c-0.8,0.3-1.2,0-1.6-0.6C144,71.6,144.2,70,145.3,68.8z M145.2,75.7c0.3,0.1,0.6,0.4,0.9,0.6c-0.6,0.5-1.1,1.1-1.8,1.5
	c-0.1,0.1-0.5-0.4-0.7-0.6C143.8,76.1,144.2,75.5,145.2,75.7z M148.4,79.7c0.6,0.4,0.9,0.6,1.3,0.8c-0.3,0.4-0.5,1-0.9,1.3
	c-0.5,0.3-1.1,0.3-1.7,0.4c-0.2,0-0.6-0.1-0.7-0.3c-0.5-0.9,0.7-3.1,1.8-3.3C148.3,79.1,148.3,79.5,148.4,79.7z M145.9,101.9
	c-0.6-0.1-1.5-0.3-1.7-0.7c-0.8-1.4,0.5-3.8,2.1-4.1c0.6-0.1,1,0.1,0.8,0.7c-0.2,0.6-0.5,1.3-0.7,1.9c0.1,0.1,0.1,0.2,0.2,0.3
	c0.9-0.5,1.8-1.1,2.7-1.6C150,99.9,148.4,102.2,145.9,101.9z M143.2,95.2c-0.2-0.1-0.4-0.2-0.4-0.4c0-1.2-0.3-2.4,0.1-3.4
	c0.5-1.2,1.8-1.4,3.4-1.1c-0.4,0.9-0.7,1.8-1.1,2.6c0,0.1,0.1,0.2,0.1,0.3c1-0.6,2.1-1.3,3.3-2.1c-0.1,0.7,0,1.2-0.2,1.7
	C147.9,94.6,145,95.8,143.2,95.2z M142.5,86.7c-0.2-1.7,0.9-3.2,2.6-3.4c0,0.8-0.1,1.5-0.1,2.5c1-0.3,1.9-0.5,2.8-0.7
	c0.4,2.1-1.3,2.9-3.2,3.2C143.3,88.5,142.7,87.9,142.5,86.7z M141.6,66.5c2,0.4,2.1,0.5,1.8,1c-0.3,0.5-0.9,1.1-1.4,1.1
	C141.5,68.8,141.2,67.5,141.6,66.5z M145.4,60.9c0,1.3-0.9,2-1.9,2.4c-0.3,0.1-0.7,0.2-1,0c-1-0.5-1.1-3-0.1-3.8
	c0.4,0.6,0.7,1.1,1.1,1.7c0.2-0.3,0.4-0.6,0.7-0.8c0.2-0.2,0.6-0.4,0.9-0.5C145.1,60.2,145.4,60.5,145.4,60.9z M146,64.6
	c0.5,0.4,0.8,1,1.3,1.6c0.1,0,0.5,0.1,0.9,0.1c0.4,0,0.9,0,1.8,0c-0.4,0.7-0.6,1.2-1,1.5c-0.8,0.7-1.7,0.9-2.7,0.4
	c-1-0.5-1.7-2.4-1.4-3.3C145.2,64.8,145.9,64.5,146,64.6z M150.8,64c-0.7,0.8-2.5,1.3-2.9,0.7c-0.8-0.9-1.3-2-1-3.3
	c0.1-0.3,0.3-0.7,0.5-0.7c0.2-0.1,0.6,0.2,0.8,0.4c0.4,0.6,0.7,1.2,1.1,1.9c0.3-0.3,0.7-0.6,1.2-0.9C151.2,62.6,151.4,63.2,150.8,64
	z M151.5,71.9c0.1,0.9,0.3,1.7,0.4,2.8c0.5-0.7,0.9-1.3,1.4-2c0.3,0.5,0.6,0.8,0.7,1.1c0.4,1.2-0.7,3.8-1.9,4.3
	c-0.7,0.3-1.4,0.6-1.8-0.5c-0.3-0.8-0.8-1.6-0.9-2.4C149,73.5,149.9,72.2,151.5,71.9z M155.3,95.8c-1.3,1.6-3,2-4.1,0.9
	c-2-2.1-1.9-2.2-0.2-4.4c1.3,0.6,1.5,0.9,1.7,3.1c1-1,1.8-1.8,2.7-2.6C156.4,93.5,156.3,94.6,155.3,95.8z M153.6,85.8
	c-0.2,0-0.5,0-0.6-0.2c-1.2-1.4-1.9-3.6-0.4-5.2c0.7-0.7,1-0.5,1.2,0.3c0.2,0.7,0.2,1.5,0.3,2.7c0.7-1.3,1.2-2.2,1.7-3.4
	c0.1,0,0.3,0.1,0.4,0.2C157.5,82.1,156,85.5,153.6,85.8z M150.6,85.3c1.1,0.8,1.4,2,1.5,3.2c0.9-0.4,1.6-0.9,2.4-1.1
	c0.7-0.2,1.2,0.1,1,1c-0.4,1.4-2.9,2.8-4.3,2.4c-0.1,0-0.3-0.1-0.4-0.2C149.5,89.4,149.4,86.6,150.6,85.3z M155.8,70.9
	c-0.6,0.6-1.3,0.8-2.1,0.4c-2.1-1.3-3-4.5-1.3-6.2c0.8,1.5,1.6,2.8,2.4,4.3c0.3-0.8,0.6-1.6,0.9-2.6c0.3,0.4,0.7,0.8,0.8,1.2
	C157,68.9,156.6,70.1,155.8,70.9z M161,77.6c-1.4,2.8-1.9,2.8-3.8,0.7c-2.1-2.3-2.4-3.8-0.2-6.2c0.4,1.2,0.8,2.4,1.2,3.5
	c0.1,0.1,0.2,0.1,0.3,0.2c0.3-1,0.6-1.9,0.9-3c0.1,0,0.3,0.1,0.5,0.2C161.3,73.9,161.9,75.8,161,77.6z M157.3,96.2
	c0.2-0.4,0.2-0.8,0.4-1.1c0.2-0.4,0.5-0.7,0.8-1c0.3,0.3,0.7,0.6,0.9,0.9c0.3,0.4,0.4,1,0.6,1.7c0.9-1.5,1.4-3.2,3.6-3.2
	c0.1,0.2,0.2,0.5,0.2,0.8c0,3.1-1.9,5.1-4.8,5.8c-0.2,0-0.5,0-0.6-0.2C157,99,156.7,97.7,157.3,96.2z M160.9,86.4
	c-0.2,0.1-0.6,0-0.8-0.1c-1.2-0.9-2-2-1.7-3.5c0.1-0.5,0.4-1,0.7-1.4c0.4,0.3,0.7,0.5,1.1,0.8c0.2,0.1,0.3,0.2,0.5,0.4
	c0.6-1.4,1.2-2.7,1.8-4.1c0.2,0.2,0.4,0.2,0.4,0.3C164.3,80.9,163.1,85.4,160.9,86.4z M163.1,90.7c-0.7,1.2-2,2.2-3.3,2
	c-0.7-0.1-1.2-1.5-1.8-2.4c-0.1-0.2-0.1-0.4-0.2-0.6c-0.5-1.5-0.2-1.9,1.4-1.9c0.6,0,1,0.1,1.1,0.8c0.1,0.5,0.3,0.9,0.4,1.4
	c0.7-1.4,0.9-3,2.9-3.5C164.1,88,163.9,89.4,163.1,90.7z M163.6,102.5c4.5-0.1,9.2,1.1,13.1-2.4c-0.2,1.9-1.6,3.5-3.9,4.2
	C169.5,105.4,166.4,104.5,163.6,102.5z M159,108.7c3.6,0,7.2,0,11,0c-0.8,1.4-2.2,1.7-3.6,1.9C163.9,111,159.9,109.9,159,108.7z
	 M154.2,114.5c3.1,0.8,6.2,1.1,9.2,0.4C162.4,117.9,156,116.4,154.2,114.5z M150.9,104c-0.1-0.1-0.3-0.2-0.3-0.3
	c-0.7-1.3,1-4.5,2.5-4.6c0.2,0,0.7,0.5,0.7,0.7c-0.1,0.6-0.3,1.3-0.5,1.9c0.1,0.1,0.2,0.2,0.2,0.3c0.9-0.6,1.7-1.2,2.6-1.9
	c0.9,0.8,1.9,1.6,2.9,2.4C157.6,104.5,152.9,105.4,150.9,104z M143.9,107.1c-0.2-0.2-0.3-0.8-0.2-1.1c0.6-2.1,1.7-2.6,4.5-1.9
	c-0.8,0.6-1.5,1-2.1,1.5c0.1,0.1,0.1,0.2,0.2,0.3c0.9,0,2,0.3,2.7-0.1c1.7-0.8,2.6,0.3,3.8,1c-0.1,0.2-0.2,0.4-0.3,0.5
	C149.8,109.9,146,108.8,143.9,107.1z M141.4,113.9c-2-0.1-2.6-0.9-1.6-2.6c0.5-0.9,1.3-1.7,2.2-2.3c0.4-0.2,1.3,0.3,1.9,0.5
	c0.2,0,0.3,0.1,0.5,0.2c1,0.3,2.1,0.6,3.1,0.9C146.6,112.8,144.3,114.1,141.4,113.9z M135.8,124.6c0.7-2.1,2.1-2.9,4.6-2.4
	c0.2,1.6-2.2,3.6-4.1,3.5C135.6,125.6,135.6,125.1,135.8,124.6z M135.6,119.1c1.1-2.8,4-3.3,6.3-2.9c0.2,0,0.6,0.7,0.5,1
	C141.3,120.5,138.1,121.5,135.6,119.1z M132.5,113.1c0.8-1.8,2.8-2.5,5.2-2.3c-0.5,1.3,0.1,3.1-1.6,3.7
	C134.7,115,133.5,114.1,132.5,113.1z M131.1,107.2c1.3-1.1,3.2-0.6,4.9,1.2C134.4,109.4,132.2,108.9,131.1,107.2z M125.8,103.2
	c-0.8-0.5-0.5-0.8-0.2-1.3c0.9-1.1,2.4-1.5,3.9-0.8c-0.3,0.4-0.6,0.8-1.1,1.4c1.3,0,2.3-0.1,3.3,0c0.4,0,0.8,0.4,1.2,0.7
	c-0.4,0.4-0.7,1.2-1.2,1.2C129.6,104.8,127.6,104.5,125.8,103.2z M104.3,122.6c1.3-0.1,2.6-0.1,3.8-0.2c2.4-0.2,4.5-1.1,5.7-3.3
	c0.7-1.2,1.3-2.4,1.8-3.4c4.6,1.9,9.1,3.8,13.8,5.7c-0.2,2.7-0.5,5.5-0.7,8.4c-0.2,2.2-0.8,4.5,0.1,6.7c0.4,1,0.6,2.1,0.9,3.3
	c-4.7,0-9.2,0-13.7,0c-0.2-0.7-0.4-1.3-0.6-1.9c-0.9-3-2.8-5-6.4-4.6c-2.2,0.3-3.5-0.4-4.2-2.4c-0.7-2-1.6-3.9-2.2-5.9
	C102.1,123.4,102.7,122.8,104.3,122.6z M108.3,95.5c-1.8-0.1-3.7-1.6-4.1-3.1C106.1,92,107.5,93,108.3,95.5z M107,90.3
	c-1.1-0.9-2.1-1.8-3.2-2.7c0.1-0.2,0.2-0.4,0.2-0.6c1,0.1,2.3-0.1,2.9,0.4c0.6,0.5,0.4,1.8,0.5,2.8C107.3,90.1,107.2,90.2,107,90.3z
	 M101.9,102.4c-1,1.3-1.4,1.4-3,0.7c-1.8-0.8-2.7-2.2-2.4-3.8c1.8,0.2,3.7,0.9,5.4-0.3C102.9,100.2,102.8,101.2,101.9,102.4z
	 M101.5,95.8c0,0.3,0.1,0.6,0,0.8c-0.4,0.5-0.8,1.2-1.3,1.3c-0.6,0.1-1.8-0.1-1.9-0.5c-0.5-1.1-0.6-2.4-0.8-3.6
	c-0.1-0.9,0.7-1,1.4-1.1c0.7-0.2,1.5-0.4,1.9,0.4c0.4,0.8,0.7,1.7,1,2.6C101.6,95.8,101.6,95.8,101.5,95.8z M96.8,90.4
	C96,92,95.1,92.3,93,91.5c-1-0.4-1.2-1.3-0.7-3.3C93.9,89,95.3,89.7,96.8,90.4z M95.9,88.2c-0.9-0.4-1.9-0.9-2.9-1.4
	c-0.2-0.1-0.3-0.6-0.2-0.9c0.3-0.5,0.6-1,1-1.4c0.2-0.2,0.8-0.2,1,0C95.9,85.4,97,86.3,95.9,88.2z M92.9,103.4
	c0.1,1.2-0.4,2.2-1.5,2.9c-0.4,0.2-1.1,0.3-1.5,0.1c-1.2-0.8-1.5-3.1-0.6-4.3C90.5,102.6,91.6,103,92.9,103.4z M90.3,93
	c-0.1,0.7-0.2,1.4-1.6,1.5c-0.2-0.3-1-0.8-0.9-1.2c0.1-0.5,0.8-1.2,1.3-1.3C89.6,91.8,90.5,92.1,90.3,93z M91,97
	c1.5,0.6,2.7,1.1,4.1,1.6c-0.3,0.5-0.5,1.3-1,1.6c-0.6,0.4-1.4,0.7-2,0.6c-0.4-0.1-0.9-0.9-1-1.4C90.9,98.6,91,97.8,91,97z
	 M94.9,95.7c-0.5,0.3-1.7,0.4-1.9,0.1c-0.4-0.7-0.4-1.6-0.6-2.4c1.3,0.1,2.3,0.2,3.4,0.2C96.1,94.5,95.7,95.3,94.9,95.7z M97,108.8
	c-1.5-0.8-2.9-4.3-2.4-6.1c0.3,0.2,0.6,0.3,0.9,0.5c1.5,1.2,3,2.3,5.1,2.1c0.9-0.1,0.9,0.7,0.9,1.4C101.2,108.3,98.5,109.6,97,108.8
	z M92.9,112c-1-1.6-0.5-3.1,0.3-4.9c1.5,2.1,3.2,3.6,5.6,3.9c-0.4,1.3-1.2,1.9-2.4,2.2C95.1,113.4,93.8,113.3,92.9,112z M87.1,113
	c0.2-1.6,1.4-3.1,2.8-3.5c0.3,2,0.8,3.8,2.5,4.9c0.8,0.6,0.5,0.8,0,1.2c-0.8,0.7-2.7,0.7-3.8,0.1C87.5,115.1,86.9,114.3,87.1,113z
	 M87,106.3c-0.3,0.2-0.9,0.3-1.2,0.1c-0.7-0.4-1.5-0.7-1.3-1.8c0.3-1,0.8-1.8,2.1-1.7c0.2,0.8,0.4,1.6,0.5,2.3
	C87.2,105.7,87.2,106.2,87,106.3z M82,91.2c0.1-1.2,0.7-1.9,1.7-1.9c0.8,0,1.5,0.3,1.5,1.3c0,1.2-0.6,1.8-1.6,1.8
	C82.9,92.2,81.9,92.5,82,91.2z M83.6,99c0.1,0,0.7,0.6,0.7,1c0.1,0.8-0.5,1.1-1.2,1c-0.3-0.1-0.7-0.4-1-0.6c0-0.2,0-0.4,0-0.5
	C82.6,99.5,83.1,99.1,83.6,99z M83.8,109.8c0.8-0.8,1.8-1,2.7-0.6c-0.5,1.9-1,3.8-1.6,5.8c-1,0-1.6-0.8-2-1.8
	C82.5,111.9,82.8,110.7,83.8,109.8z M81.8,105.6c-0.4-0.1-0.8-0.6-1.2-0.9c0.3-0.3,0.6-0.7,1-1.2c0.5,0.5,1,0.8,1,1
	C82.6,104.9,82.1,105.6,81.8,105.6z M81.6,108.8c-0.2,0.8-0.3,1.6-0.5,2.6c-0.9-0.4-2-0.4-1.8-1.5C79.5,108.8,80.5,108.7,81.6,108.8
	z M73.8,119c1.2-0.2,2.5-0.2,3.9-0.3c-0.5,1.5-1.6,2.6-3.2,3c-0.7,0.2-1.4,0-1.6-0.9C72.9,120.1,72.9,119.2,73.8,119z M74.9,110.4
	c0.2-1,0.9-1.5,2.1-1.4c0.1,0.8,0.2,1.6,0.4,2.4c0.1,0.3,0.3,0.6,0.4,1c-0.5,0.2-0.9,0.5-1.4,0.5C75.3,112.8,74.7,111.6,74.9,110.4z
	 M76.9,114.4c0.2,0,0.5,0.3,0.5,0.4c-0.1,0.7-0.1,1.5-0.5,1.9c-0.4,0.4-1.3,0.6-1.9,0.4c-0.9-0.2-0.9-1.1-0.9-1.9
	c0-0.5,0.2-0.9,0.2-1.4C75.2,114.1,76,114.2,76.9,114.4z M72.8,104c0.1,0.4,0.4,0.8,0.2,1.1c-0.4,0.9-0.9,1.8-1.5,3
	c-1.1-1.5-0.9-2.9,0.2-3.7C72.1,104.2,72.5,104.1,72.8,104z M76.6,92.3c-0.5,0.7-0.9,1.3-1.4,1.9c-0.8-0.6-1.4-1.1-2.1-1.6
	c-0.1-0.1-0.1-0.2-0.2-0.4C74.1,91.7,75.3,91.7,76.6,92.3z M75.5,101.4c-0.2,0.1-0.8-0.1-0.9-0.3c-0.7-1.5,0.6-3.2,2.3-3
	C77.2,99.7,76.7,100.9,75.5,101.4z M78.6,105.8c-0.1,0.9-0.7,1.3-1.5,1.3c-0.3,0-0.6-0.4-0.9-0.6c0-0.2,0-0.3,0-0.5
	c0.5-0.3,1.1-0.7,1.6-0.9C78,105.1,78.6,105.6,78.6,105.8z M78.6,112.5c2.2-0.1,2.1,0,2.8,2c0.3,0.9,0.3,1.3-0.6,1.6
	c-0.9,0.4-1.6,0-1.9-0.8C78.7,114.5,78.7,113.5,78.6,112.5z M80.2,93.7c0.6,0.6,1.4,1.1,1.8,1.8c0.3,0.6-1.1,1.8-2,1.8
	c-1,0-1.1-0.7-1.3-1.7C79.2,95,79.7,94.4,80.2,93.7z M85.6,84.2c-0.8,0.6-1.5,1.1-2.3,1.7c-1.2-0.9-2.3-1.7-3.5-2.6
	C82.2,82.7,84.5,83.2,85.6,84.2z M86,96.2c2.6,0.8,2.7,0.9,2.9,3.5c-0.8-0.3-1.8-0.4-2.2-0.9C86.2,98.2,86.2,97.3,86,96.2z
	 M88.9,87.1c0.4,0.3,0.9,0.6,1.5,1c-0.7,0.5,0,2-1.4,1.7c-0.7-0.1-1.7-0.4-2.1-1c-0.6-1,0-2,0.8-3C88.2,86.4,88.5,86.8,88.9,87.1z
	 M89.7,84c0.7-0.4,1.5-0.7,2.2-1.1c0.1,0.1,0.2,0.3,0.3,0.4c-0.3,0.7-0.5,1.4-1,2c-0.3,0.3-1.2,0.4-1.5,0.2
	C89.2,85.2,89,84.5,89.7,84z M95.8,79.6c0,0.2-0.1,0.3-0.1,0.5c-0.9,0.1-2.1,0.7-2.8,0.3c-0.8-0.5-1.1-1.7-1.6-2.6
	c0.1-0.1,0.2-0.2,0.4-0.4C93,78.1,94.4,78.9,95.8,79.6z M99.7,84.9c-1.4-0.1-3.2-1.2-3.8-2.8c1.2-0.3,2.4-0.6,3.3-0.8
	C99.4,82.7,99.6,83.8,99.7,84.9z M101.7,87.8c0.2,0.5,0.6,1,0.9,1.4c-0.6,0.4-1.1,0.8-1.7,1.3c-0.3-0.2-0.6-0.4-0.9-0.6
	c-0.2-0.1-0.3-0.3-0.4-0.4c-0.6-0.8-0.5-1.7,0.3-2.2C100.6,86.6,101.2,86.7,101.7,87.8z M102.8,81c0.9,1.2,1.7,2.4,2.6,3.6
	c-1.9,0.3-3.6-0.3-3.9-1.4C101.2,82.2,101.6,81.4,102.8,81z M109.9,80.9c-2.1,0.7-4.8-0.1-5.2-1.5C107.4,78.7,109,79.2,109.9,80.9z
	 M112.3,85.8c-0.6-0.3-1.2-0.5-2-0.8c0.3,0.8,0.4,1.4,0.7,2.2c-1.4-0.2-2.3-0.8-2.8-1.9c-0.3-0.7-0.2-1.6-0.3-2.4c0.7,0,1.3,0,2,0
	c0.1,0,0.2,0,0.4,0.1C111.6,83.3,112.4,84.4,112.3,85.8z M38.8,68.3c0.7-0.9,1.3-1.7,2-2.6c2.5-2.9,5.1-5.7,7.7-8.6
	c0.3-0.3,0.6-0.7,0.9-1.1l0.2-0.1c2.2-2.1,4.4-4.2,6.7-6.3c6.6-6.1,13.5-11.8,20.9-16.8c3.2-2.1,6.6-3.9,10-5.7
	C76,35.5,65.5,44.6,55,53.9c0,0-0.3,0.2-0.5,0.4c-0.3,0.3-2.1,1.9-2.4,2.2c-4.3,4-8.5,7.9-12.8,11.9C39.2,68.4,39.1,68.4,38.8,68.3z
	"/>
<path class="st0" d="M159.4,35.6c-0.3-1.1-0.9-2-1.9-2.5c-0.9-0.4-1.7-0.9-2.6-1.2c-4.8-1.4-8.1-4.5-10.7-8.6
	c-0.9-1.4-1.6-2.9-1.7-4.9c0.6,0.7,1.1,1.2,1.5,1.6c0.6,0.6,1.1,0.8,1.9,0.2c3.8-2.7,8.1-4.6,12.4-6.3c0.8-0.3,5.2-1.7,5.8-1.9
	c5.2-1.6,10.5-2.5,15.9-2.8c4-0.2,7.9,0,11.8,1c0.7,0.2,1.3,0.6,2,0.9c0,0.2,0,0.3,0,0.5c-1.1,0.3-2.1,0.6-3.2,0.9
	c-5,1.4-9.9,3.1-14.6,5.5c-6.2,3.3-11.5,7.5-15.7,13.2c-0.4,0.6-0.4,1,0,1.6c0.4,0.5,0.8,1.3,0.8,1.9c-0.2,1.4,0.5,2.2,1.5,2.9
	c0.7,0.5,1.3,1,1.9,1.6C162.4,39.1,159.9,37.3,159.4,35.6z M150.4,28c0-0.8,0.1-1.6,0.1-2.5c1.1,1.2,2.2,2.4,3.2,3.5
	c0.1-0.1,0.2-0.2,0.4-0.3c-1.2-2.6-2.5-5.2-3.7-7.8C148.2,22.6,148.3,26.7,150.4,28z"/>
<path class="st0" d="M172.2,42.7c-0.9-0.5-1.9-0.8-2.5-1c1,1.1,2.3,2.2,3.2,3.5c1,1.5,0.8,3.1,0,4.8c-0.3,0.7-0.8,0.7-1.2,0.5
	c-1.2-0.6-8.1-2.4-9.2-2.4c-0.1,0.1-0.3,0.1-0.4,0.1c0,0,0,0.1,0,0.1c0.1,0.1,0.2,0.2,0.2,0.3c0.2,0.2,4.2,1.7,5.2,2.2c0,0,0,0,0,0
	c0.5,0.1,1,0.3,1.6,0.5c-0.2,0.1-0.1,0.9-0.1,1.4c-0.1,0.5-0.3,1,0.6,0.6c0.1,0,0.3-0.1,0.4-0.1c1-0.5,1.8-1.2,3-0.5
	c0.2,0.1,0.8-0.1,1-0.4C176.7,48.6,176.2,45.1,172.2,42.7z M169.9,52.7c0-0.4,0.3-1,0.8-1C171.7,52,170.2,52.9,169.9,52.7z"/>
<path class="st0" d="M167.9,58.5c0-0.2,1.4-1.8,1.4-2c-0.2-0.2-2.4,0.3-2.6,0c-0.6-0.7-0.5-0.6-1.1-1.3c-0.2-0.3-0.2-0.8-0.2-1.2
	c0-1.1,0.1-2.1,0.1-3.2c0-0.9-0.6-0.9-1.2-0.7c-0.4,0.1-0.8,0.3-1.2,0.4c-0.8,0.3-1.7-0.3-1.8-1.2c0,0,0,0,0-0.1
	c-0.1-0.8-0.4-1.1-1.3-0.8c-2.5,0.8-2.6,0.7-4-1.5c-0.2-0.3-0.7-0.5-1-0.4c-3,0.9-4.2-0.2-5.3-2.7c-0.2-0.3-0.3-0.7-0.5-1.1
	c-3.1,2.3-4.3,10.4,0.7,15.2c-0.4-1.2-0.8-2.2-1-3.2c-0.5-2,0.8-3.8,2.9-3.8c3.4-0.1,6.1,1.5,7.9,4.3c1.2,1.9,2.4,3.8,4.7,4.6
	c0.6,0.2,1.6,0.3,2.2,0.2c0,0,0.1,0,0.1,0c0.7-0.1,1.3-0.7,1.3-1.4C167.9,58.6,167.9,58.6,167.9,58.5z M160.3,51.2
	c-0.3,0.2-0.8-0.1-1.2-0.2c0-0.1,0-0.2,0-0.4c0.5-0.3,1-0.6,1.4-0.8c0.1,0.1,0.3,0.2,0.4,0.3C160.7,50.4,160.6,51,160.3,51.2z
	 M168.1,57.5c-0.2,0.1-0.4-0.1-0.6-0.2c0-0.1,0-0.1,0-0.2c0.3-0.1,0.6-0.2,0.8-0.3c0.1,0.1,0.1,0.1,0.2,0.2
	C168.4,57.2,168.3,57.4,168.1,57.5z M163,53c0.5-0.6,1.1-1,1.7-1.6c0.1,0.1,0.2,0.2,0.3,0.3c-0.1,0.6-0.2,1.3-0.5,1.9
	c-0.1,0.2-0.8,0.4-1.1,0.3C163.3,53.8,162.9,53.1,163,53z M162.6,55.8c1.1,0.8,1.9,1.5,3,2.3C164,58.6,162.7,57.6,162.6,55.8z"/>
<path class="st0" d="M140.2,16.8c-1.8,2.4-2.4,5.1-2.9,8c-2.5-1.1-4.5-2.9-6.5-4.7c0.4,2.7,6.1,8,9.9,9.4c-0.3-2.1-0.7-4.2-0.8-6.3
	C139.9,21.1,140.2,19,140.2,16.8z"/>
<path class="st0" d="M150.4,37.7c0.1-0.3,0.1-0.5,0.3-0.7c0.2-0.2,0.4-0.5,0.7-0.5c0.2,0,0.5,0.3,0.7,0.5c0.3,0.3,0.6,0.9,0.9,0.9
	c0.3,0,0.8-0.4,1.1-0.7c-0.1-0.1-0.1-0.3-0.2-0.4c0.3,0.3,0.9,0.6,0.9,0.9c0.2,1.6,1.5,1.5,2.7,1.9c-0.6-2-1.6-3.4-3.5-4.1
	c-1.7-0.6-3.4-1.2-5.5-1.9c0.5,1.5,1,2.8,1.5,4.1C150.2,37.7,150.3,37.7,150.4,37.7z"/>
<path class="st0" d="M145.5,32c0.7-0.4,1.1-0.7,1.5-0.9c-1.3-1.7-2.6-3.4-4-5.1c-0.1,0-0.2,0.1-0.3,0.1
	C143.7,28,144.5,29.9,145.5,32z"/>
<path class="st0" d="M138.1,41.6c1.3,0.3,2.5,0.6,3.8,0.9c0.4-0.7,0.3-1.2-0.6-1.2c-1.1,0-2.1,0-3.2,0
	C138.1,41.4,138.1,41.5,138.1,41.6z"/>
<path class="st0" d="M143.3,37.6c-1.1-0.6-2.2-1.2-3.3-1.8c-0.1,0.1-0.1,0.2-0.2,0.2c0.8,0.7,1.6,1.4,2.5,2.1
	C142.9,38.6,143.3,38.5,143.3,37.6z"/>
<path class="st0" d="M171.3,46.8c0.2-1.2-0.4-2-1.7-2.3c0.4,0.8,0.9,1.7,1.3,2.5C171,46.9,171.2,46.8,171.3,46.8z"/>
<path class="st0" d="M139.7,45.6c0.7,0,1.3,0.1,2,0.1c0.1,0,0.3-0.3,0.4-0.4c-0.2-0.1-0.3-0.4-0.5-0.4c-0.6,0.1-1.3,0.2-1.9,0.3
	C139.7,45.4,139.7,45.5,139.7,45.6z"/>
<g>
	<path class="st1" d="M174.6,58.3c2.3,0.4,3.7,1.9,5,8c1.1,5.3,10.7,7.4,13,6.8c-3.7-2.5-4.7-6.6-6.9-12.1
		C183.4,55.5,175.4,57.2,174.6,58.3z"/>
	<path class="st2" d="M182.1,56.1c6,2.7,6.3,11.4,14.7,16c7.8,4.2,16-6.3,22.3-2.3c-4.5-9.2-9.9-6.1-18-4.4
		C193.3,67,188.1,55,182.1,56.1z"/>
	<path class="st1" d="M205.5,60.9c-3.1,2.8-9.3,3-15.1-3.2c-5.8-6.3-14.5-2.1-14.5-2.1s6.6-8.2,14.9-5.8
		C199.1,52.1,196.4,60,205.5,60.9z"/>
</g>
<g>
	<path class="st0" d="M259.9,66.2h-12.1v24h-5.2v-28h17.3V66.2z"/>
	<path class="st0" d="M284.2,90.2h-4c-0.5,0-0.8-0.1-1.1-0.3c-0.3-0.2-0.5-0.5-0.6-0.8l-2.1-5.7h-11.6l-2.1,5.7
		c-0.1,0.3-0.3,0.6-0.6,0.8c-0.3,0.2-0.7,0.4-1.1,0.4h-4.1l11-28h5.3L284.2,90.2z M275,79.6l-3.4-9.3c-0.2-0.4-0.3-0.9-0.5-1.5
		c-0.2-0.6-0.4-1.2-0.5-1.8c-0.2,0.7-0.3,1.3-0.5,1.9c-0.2,0.6-0.4,1.1-0.5,1.5l-3.4,9.3H275z"/>
	<path class="st0" d="M285.4,64.8c1.1-0.9,2.4-1.7,3.9-2.2c1.5-0.5,3.2-0.8,5-0.8c1.5,0,2.9,0.2,4.1,0.5c1.2,0.4,2.3,0.9,3.1,1.5
		c0.9,0.7,1.5,1.4,2,2.3c0.5,0.9,0.7,1.9,0.7,3c0,1.3-0.3,2.5-0.9,3.6c-0.6,1.1-1.5,1.9-2.7,2.6c0.6,0.3,1.2,0.7,1.8,1.1
		c0.5,0.4,1,0.9,1.4,1.4c0.4,0.5,0.7,1.1,0.9,1.7c0.2,0.6,0.3,1.2,0.3,1.9c0,1.3-0.2,2.5-0.7,3.5c-0.5,1.1-1.2,2.1-2.1,2.9
		c-0.9,0.8-2,1.5-3.3,1.9s-2.8,0.7-4.5,0.7c-1,0-1.9-0.1-2.9-0.3c-0.9-0.2-1.8-0.4-2.7-0.7c-0.9-0.3-1.7-0.7-2.4-1.2
		c-0.8-0.5-1.4-1-2-1.5l1.5-2.5c0.1-0.2,0.3-0.3,0.5-0.5c0.2-0.1,0.4-0.2,0.7-0.2c0.3,0,0.7,0.1,1.1,0.4c0.4,0.3,0.9,0.6,1.5,0.9
		c0.6,0.3,1.2,0.6,2,0.9s1.7,0.4,2.8,0.4c1.7,0,3.1-0.4,4.1-1.1c1-0.7,1.4-1.9,1.4-3.5c0-0.6-0.1-1.2-0.4-1.7s-0.6-0.9-1.1-1.3
		c-0.5-0.3-1.1-0.6-1.7-0.8c-0.7-0.2-1.4-0.3-2.3-0.3h-4l0-4.2h3.6c1.6,0,2.9-0.3,3.8-1c0.9-0.6,1.4-1.6,1.4-2.8
		c0-1.1-0.4-1.9-1.3-2.6c-0.9-0.6-2.1-1-3.7-1c-0.9,0-1.8,0.1-2.4,0.3s-1.3,0.4-1.8,0.7s-0.9,0.5-1.3,0.7c-0.3,0.2-0.6,0.3-0.9,0.3
		c-0.3,0-0.5-0.1-0.7-0.2c-0.2-0.1-0.3-0.3-0.5-0.6L285.4,64.8z"/>
	<path class="st0" d="M336.3,76.2c0,2.1-0.3,4-1,5.7s-1.6,3.3-2.9,4.5c-1.2,1.3-2.7,2.3-4.5,3c-1.7,0.7-3.7,1.1-5.8,1.1
		c-2.1,0-4.1-0.4-5.8-1.1c-1.7-0.7-3.2-1.7-4.5-3c-1.2-1.3-2.2-2.8-2.9-4.5c-0.7-1.8-1-3.7-1-5.7c0-2.1,0.3-4,1-5.7
		c0.7-1.8,1.7-3.3,2.9-4.5c1.2-1.3,2.7-2.3,4.5-3c1.7-0.7,3.7-1.1,5.8-1.1c1.4,0,2.8,0.2,4,0.5c1.3,0.3,2.4,0.8,3.5,1.4
		c1,0.6,2,1.3,2.8,2.2c0.8,0.9,1.5,1.8,2.1,2.9c0.6,1.1,1,2.2,1.3,3.5C336.2,73.5,336.3,74.8,336.3,76.2z M331,76.2
		c0-1.5-0.2-2.9-0.6-4.1c-0.4-1.2-1-2.3-1.8-3.1c-0.8-0.9-1.7-1.5-2.8-2c-1.1-0.5-2.3-0.7-3.7-0.7s-2.6,0.2-3.7,0.7
		c-1.1,0.5-2,1.1-2.8,2c-0.8,0.9-1.4,1.9-1.8,3.1c-0.4,1.2-0.6,2.6-0.6,4.1c0,1.5,0.2,2.9,0.6,4.1c0.4,1.2,1,2.3,1.8,3.1
		c0.8,0.8,1.7,1.5,2.8,1.9c1.1,0.5,2.3,0.7,3.7,0.7s2.6-0.2,3.7-0.7c1.1-0.5,2-1.1,2.8-1.9c0.8-0.8,1.4-1.9,1.8-3.1
		C330.8,79.1,331,77.8,331,76.2z"/>
	<path class="st0" d="M350.6,62.2c1.8,0,3.4,0.2,4.7,0.5c1.3,0.3,2.4,0.8,3.2,1.5c0.8,0.6,1.4,1.4,1.8,2.3s0.6,2,0.6,3.1
		c0,0.7-0.1,1.3-0.3,1.9c-0.2,0.6-0.5,1.2-0.9,1.7s-0.9,1-1.6,1.4c-0.6,0.4-1.4,0.8-2.2,1.1c3.9,0.9,5.8,2.9,5.8,6.2
		c0,1.2-0.2,2.3-0.7,3.3c-0.5,1-1.1,1.9-2,2.6s-1.9,1.3-3.2,1.7c-1.3,0.4-2.7,0.6-4.3,0.6h-10.6v-28H350.6z M346.1,66.2v8.1h4.2
		c1.8,0,3.1-0.3,4-1c0.9-0.6,1.4-1.7,1.4-3.1c0-1.5-0.4-2.5-1.2-3.1c-0.8-0.6-2.1-0.9-3.9-0.9H346.1z M351.4,86.2
		c1,0,1.8-0.1,2.4-0.3c0.7-0.2,1.2-0.5,1.6-0.9c0.4-0.4,0.7-0.8,0.9-1.4c0.2-0.5,0.3-1.1,0.3-1.6c0-0.6-0.1-1.2-0.3-1.6
		c-0.2-0.5-0.5-0.9-0.9-1.2c-0.4-0.3-0.9-0.6-1.6-0.8c-0.7-0.2-1.4-0.3-2.4-0.3h-5.3v8.2H351.4z"/>
	<path class="st0" d="M393.2,76.2c0,2.1-0.3,4-1,5.7s-1.6,3.3-2.9,4.5c-1.2,1.3-2.7,2.3-4.5,3c-1.7,0.7-3.7,1.1-5.8,1.1
		c-2.1,0-4.1-0.4-5.8-1.1c-1.7-0.7-3.2-1.7-4.5-3c-1.2-1.3-2.2-2.8-2.9-4.5c-0.7-1.8-1-3.7-1-5.7c0-2.1,0.3-4,1-5.7
		c0.7-1.8,1.7-3.3,2.9-4.5c1.2-1.3,2.7-2.3,4.5-3c1.7-0.7,3.7-1.1,5.8-1.1c1.4,0,2.8,0.2,4,0.5c1.3,0.3,2.4,0.8,3.5,1.4
		c1,0.6,2,1.3,2.8,2.2c0.8,0.9,1.5,1.8,2.1,2.9c0.6,1.1,1,2.2,1.3,3.5C393.1,73.5,393.2,74.8,393.2,76.2z M387.9,76.2
		c0-1.5-0.2-2.9-0.6-4.1c-0.4-1.2-1-2.3-1.8-3.1c-0.8-0.9-1.7-1.5-2.8-2c-1.1-0.5-2.3-0.7-3.7-0.7s-2.6,0.2-3.7,0.7
		c-1.1,0.5-2,1.1-2.8,2c-0.8,0.9-1.4,1.9-1.8,3.1c-0.4,1.2-0.6,2.6-0.6,4.1c0,1.5,0.2,2.9,0.6,4.1c0.4,1.2,1,2.3,1.8,3.1
		c0.8,0.8,1.7,1.5,2.8,1.9c1.1,0.5,2.3,0.7,3.7,0.7s2.6-0.2,3.7-0.7c1.1-0.5,2-1.1,2.8-1.9c0.8-0.8,1.4-1.9,1.8-3.1
		C387.7,79.1,387.9,77.8,387.9,76.2z"/>
	<path class="st0" d="M403,66.3v7.8h9.8v4H403v7.9h12.5v4.2h-17.7v-28h17.7v4.2H403z"/>
	<path class="st0" d="M456.3,76.2c0,2.1-0.3,4-1,5.7s-1.6,3.3-2.9,4.5c-1.2,1.3-2.7,2.3-4.5,3c-1.7,0.7-3.7,1.1-5.8,1.1
		c-2.1,0-4.1-0.4-5.8-1.1c-1.7-0.7-3.2-1.7-4.5-3c-1.2-1.3-2.2-2.8-2.9-4.5c-0.7-1.8-1-3.7-1-5.7c0-2.1,0.3-4,1-5.7
		c0.7-1.8,1.7-3.3,2.9-4.5c1.2-1.3,2.7-2.3,4.5-3c1.7-0.7,3.7-1.1,5.8-1.1c1.4,0,2.8,0.2,4,0.5c1.3,0.3,2.4,0.8,3.5,1.4
		c1,0.6,2,1.3,2.8,2.2c0.8,0.9,1.5,1.8,2.1,2.9c0.6,1.1,1,2.2,1.3,3.5C456.1,73.5,456.3,74.8,456.3,76.2z M450.9,76.2
		c0-1.5-0.2-2.9-0.6-4.1c-0.4-1.2-1-2.3-1.8-3.1c-0.8-0.9-1.7-1.5-2.8-2c-1.1-0.5-2.3-0.7-3.7-0.7s-2.6,0.2-3.7,0.7
		c-1.1,0.5-2,1.1-2.8,2c-0.8,0.9-1.4,1.9-1.8,3.1c-0.4,1.2-0.6,2.6-0.6,4.1c0,1.5,0.2,2.9,0.6,4.1c0.4,1.2,1,2.3,1.8,3.1
		c0.8,0.8,1.7,1.5,2.8,1.9c1.1,0.5,2.3,0.7,3.7,0.7s2.6-0.2,3.7-0.7c1.1-0.5,2-1.1,2.8-1.9c0.8-0.8,1.4-1.9,1.8-3.1
		C450.7,79.1,450.9,77.8,450.9,76.2z"/>
	<path class="st0" d="M470.7,73.8c1.8,0,3.4,0.2,4.7,0.6c1.3,0.4,2.4,0.9,3.2,1.6c0.8,0.7,1.4,1.5,1.8,2.4c0.4,0.9,0.6,1.9,0.6,3
		c0,1.3-0.2,2.5-0.7,3.6s-1.1,2-2,2.8c-0.9,0.8-2,1.4-3.2,1.8c-1.3,0.4-2.7,0.6-4.4,0.6h-9.8v-28h19v4h-13.8v7.6H470.7z M470.6,86.2
		c1,0,1.8-0.1,2.4-0.3c0.7-0.2,1.2-0.5,1.6-0.9c0.4-0.4,0.7-0.8,0.9-1.3s0.3-1,0.3-1.6c0-0.6-0.1-1.2-0.3-1.7
		c-0.2-0.5-0.5-1-0.9-1.3s-0.9-0.6-1.6-0.8c-0.6-0.2-1.5-0.3-2.4-0.3h-4.6v8.3H470.6z"/>
	<path class="st0" d="M512,76.2c0,2.1-0.3,4-1,5.7s-1.6,3.3-2.9,4.5c-1.2,1.3-2.7,2.3-4.5,3c-1.7,0.7-3.7,1.1-5.8,1.1
		c-2.1,0-4.1-0.4-5.8-1.1c-1.7-0.7-3.2-1.7-4.5-3c-1.2-1.3-2.2-2.8-2.9-4.5c-0.7-1.8-1-3.7-1-5.7c0-2.1,0.3-4,1-5.7
		c0.7-1.8,1.7-3.3,2.9-4.5c1.2-1.3,2.7-2.3,4.5-3c1.7-0.7,3.7-1.1,5.8-1.1c1.4,0,2.8,0.2,4,0.5c1.3,0.3,2.4,0.8,3.5,1.4
		c1,0.6,2,1.3,2.8,2.2c0.8,0.9,1.5,1.8,2.1,2.9c0.6,1.1,1,2.2,1.3,3.5C511.9,73.5,512,74.8,512,76.2z M506.7,76.2
		c0-1.5-0.2-2.9-0.6-4.1c-0.4-1.2-1-2.3-1.8-3.1c-0.8-0.9-1.7-1.5-2.8-2c-1.1-0.5-2.3-0.7-3.7-0.7s-2.6,0.2-3.7,0.7
		c-1.1,0.5-2,1.1-2.8,2c-0.8,0.9-1.4,1.9-1.8,3.1c-0.4,1.2-0.6,2.6-0.6,4.1c0,1.5,0.2,2.9,0.6,4.1c0.4,1.2,1,2.3,1.8,3.1
		c0.8,0.8,1.7,1.5,2.8,1.9c1.1,0.5,2.3,0.7,3.7,0.7s2.6-0.2,3.7-0.7c1.1-0.5,2-1.1,2.8-1.9c0.8-0.8,1.4-1.9,1.8-3.1
		C506.5,79.1,506.7,77.8,506.7,76.2z"/>
	<path class="st0" d="M525.7,62.2c1.9,0,3.5,0.2,4.9,0.7c1.4,0.4,2.5,1.1,3.4,1.8c0.9,0.8,1.6,1.7,2,2.8c0.4,1.1,0.7,2.3,0.7,3.6
		c0,1.4-0.2,2.6-0.7,3.7c-0.5,1.1-1.1,2.1-2,2.9c-0.9,0.8-2,1.4-3.4,1.9c-1.4,0.5-3,0.7-4.8,0.7h-3.9v9.9h-5.2v-28H525.7z
		 M525.7,76.3c1,0,1.8-0.1,2.5-0.4s1.3-0.6,1.8-1s0.8-1,1.1-1.6c0.2-0.6,0.3-1.4,0.3-2.1c0-0.8-0.1-1.4-0.3-2
		c-0.2-0.6-0.6-1.1-1-1.6s-1.1-0.8-1.8-1c-0.7-0.2-1.6-0.3-2.5-0.3h-3.9v10.1H525.7z"/>
	<path class="st0" d="M562.9,62.2l-11.3,24.1c-0.4,0.8-0.8,1.5-1.3,2.1c-0.5,0.5-0.9,1-1.5,1.3c-0.5,0.3-1.1,0.5-1.7,0.6
		c-0.6,0.1-1.2,0.2-1.9,0.2c-0.9,0-1.6-0.1-2-0.3c-0.4-0.2-0.6-0.4-0.6-0.7v-3.3h1.5c0.3,0,0.6,0,0.9-0.1c0.3-0.1,0.6-0.2,0.9-0.3
		c0.3-0.2,0.6-0.4,0.8-0.7c0.3-0.3,0.5-0.7,0.8-1.1l1.1-2.3l-11.2-19.7h4.9c0.5,0,0.8,0.1,1.1,0.3s0.5,0.5,0.7,0.8l5.4,10.3
		c0.3,0.6,0.6,1.1,0.8,1.7s0.4,1.1,0.6,1.7c0.3-1.2,0.8-2.3,1.3-3.4l4.8-10.3c0.1-0.3,0.4-0.5,0.6-0.8c0.3-0.2,0.6-0.4,1.1-0.4
		H562.9z"/>
	<path class="st0" d="M590.2,86.2v9.2c0,0.5-0.2,0.8-0.5,1.1s-0.7,0.4-1.2,0.4h-3.1v-6.7h-20.6v5.2c0,0.5-0.2,0.8-0.5,1.1
		s-0.7,0.4-1.2,0.4H560V86.2h3.1c0.4-0.2,0.7-0.5,1.1-0.9c0.4-0.4,0.7-1,1-1.8c0.3-0.8,0.7-1.8,1-2.9s0.6-2.6,0.8-4.4
		c0.2-1.7,0.5-3.7,0.6-6c0.2-2.3,0.3-5,0.4-8h17.8v24H590.2z M580.6,86.2v-20h-7.7c-0.2,2.8-0.4,5.2-0.6,7.3s-0.6,4-0.9,5.6
		c-0.3,1.6-0.7,3-1.2,4.1c-0.4,1.2-0.9,2.1-1.4,2.9H580.6z"/>
	<path class="st0" d="M620.1,76.2c0,2.1-0.3,4-1,5.7s-1.6,3.3-2.9,4.5c-1.2,1.3-2.7,2.3-4.5,3c-1.7,0.7-3.7,1.1-5.8,1.1
		c-2.1,0-4.1-0.4-5.8-1.1c-1.7-0.7-3.2-1.7-4.5-3c-1.2-1.3-2.2-2.8-2.9-4.5c-0.7-1.8-1-3.7-1-5.7c0-2.1,0.3-4,1-5.7
		c0.7-1.8,1.7-3.3,2.9-4.5c1.2-1.3,2.7-2.3,4.5-3c1.7-0.7,3.7-1.1,5.8-1.1c1.4,0,2.8,0.2,4,0.5c1.3,0.3,2.4,0.8,3.5,1.4
		c1,0.6,2,1.3,2.8,2.2c0.8,0.9,1.5,1.8,2.1,2.9c0.6,1.1,1,2.2,1.3,3.5C620,73.5,620.1,74.8,620.1,76.2z M614.8,76.2
		c0-1.5-0.2-2.9-0.6-4.1c-0.4-1.2-1-2.3-1.8-3.1c-0.8-0.9-1.7-1.5-2.8-2c-1.1-0.5-2.3-0.7-3.7-0.7s-2.6,0.2-3.7,0.7
		c-1.1,0.5-2,1.1-2.8,2c-0.8,0.9-1.4,1.9-1.8,3.1c-0.4,1.2-0.6,2.6-0.6,4.1c0,1.5,0.2,2.9,0.6,4.1c0.4,1.2,1,2.3,1.8,3.1
		c0.8,0.8,1.7,1.5,2.8,1.9c1.1,0.5,2.3,0.7,3.7,0.7s2.6-0.2,3.7-0.7c1.1-0.5,2-1.1,2.8-1.9c0.8-0.8,1.4-1.9,1.8-3.1
		C614.6,79.1,614.8,77.8,614.8,76.2z"/>
	<path class="st0" d="M634.4,62.2c1.8,0,3.4,0.2,4.7,0.5c1.3,0.3,2.4,0.8,3.2,1.5c0.8,0.6,1.4,1.4,1.8,2.3s0.6,2,0.6,3.1
		c0,0.7-0.1,1.3-0.3,1.9c-0.2,0.6-0.5,1.2-0.9,1.7s-0.9,1-1.6,1.4c-0.6,0.4-1.4,0.8-2.2,1.1c3.9,0.9,5.8,2.9,5.8,6.2
		c0,1.2-0.2,2.3-0.7,3.3c-0.5,1-1.1,1.9-2,2.6s-1.9,1.3-3.2,1.7c-1.3,0.4-2.7,0.6-4.3,0.6h-10.6v-28H634.4z M629.9,66.2v8.1h4.2
		c1.8,0,3.1-0.3,4-1c0.9-0.6,1.4-1.7,1.4-3.1c0-1.5-0.4-2.5-1.2-3.1c-0.8-0.6-2.1-0.9-3.9-0.9H629.9z M635.2,86.2
		c1,0,1.8-0.1,2.4-0.3c0.7-0.2,1.2-0.5,1.6-0.9c0.4-0.4,0.7-0.8,0.9-1.4c0.2-0.5,0.3-1.1,0.3-1.6c0-0.6-0.1-1.2-0.3-1.6
		c-0.2-0.5-0.5-0.9-0.9-1.2c-0.4-0.3-0.9-0.6-1.6-0.8c-0.7-0.2-1.4-0.3-2.4-0.3h-5.3v8.2H635.2z"/>
	<path class="st0" d="M673.9,90.2h-4c-0.5,0-0.8-0.1-1.1-0.3c-0.3-0.2-0.5-0.5-0.6-0.8l-2.1-5.7h-11.6l-2.1,5.7
		c-0.1,0.3-0.3,0.6-0.6,0.8c-0.3,0.2-0.7,0.4-1.1,0.4h-4.1l11-28h5.3L673.9,90.2z M664.6,79.6l-3.4-9.3c-0.2-0.4-0.3-0.9-0.5-1.5
		c-0.2-0.6-0.4-1.2-0.5-1.8c-0.2,0.7-0.3,1.3-0.5,1.9c-0.2,0.6-0.4,1.1-0.5,1.5l-3.4,9.3H664.6z"/>
	<path class="st0" d="M700.3,62.2v28h-5.2V78h-13.2v12.3h-5.2v-28h5.2v12.1h13.2V62.2H700.3z"/>
	<path class="st0" d="M730.2,62.2v28H725V72.7c0-0.7,0-1.4,0-2.1c0-0.7,0.1-1.5,0.2-2.3c-0.3,0.7-0.5,1.4-0.8,2s-0.6,1.2-0.9,1.6
		l-10.7,16.7c-0.1,0.2-0.3,0.4-0.4,0.6c-0.2,0.2-0.3,0.4-0.5,0.5c-0.2,0.1-0.4,0.3-0.6,0.4s-0.5,0.1-0.7,0.1h-3.9v-28h5.2v17.6
		c0,0.7,0,1.4,0,2.1s-0.1,1.5-0.2,2.3c0.3-0.7,0.5-1.4,0.8-2c0.3-0.6,0.6-1.2,0.9-1.6L724,63.8c0.1-0.2,0.3-0.4,0.4-0.6
		c0.2-0.2,0.3-0.4,0.5-0.5c0.2-0.1,0.4-0.3,0.6-0.4c0.2-0.1,0.5-0.1,0.7-0.1H730.2z"/>
	<path class="st0" d="M741.7,66.3v7.8h9.8v4h-9.8v7.9h12.5v4.2h-17.7v-28h17.7v4.2H741.7z"/>
</g>
<g>
	<path class="st0" d="M253.7,113.6l-8.4,19.4c-0.1,0.1-0.1,0.3-0.2,0.3c-0.1,0.1-0.2,0.1-0.4,0.1h-1l2.6-5.7l-6.2-14.1h1.2
		c0.1,0,0.3,0,0.4,0.1c0.1,0.1,0.1,0.2,0.2,0.2l4.9,11.4c0.1,0.1,0.1,0.3,0.2,0.4c0,0.2,0.1,0.3,0.1,0.5c0-0.2,0.1-0.3,0.2-0.5
		s0.1-0.3,0.2-0.4l4.9-11.4c0-0.1,0.1-0.2,0.2-0.3c0.1-0.1,0.2-0.1,0.3-0.1H253.7z"/>
	<path class="st0" d="M262.4,120.4c0-1.1,0.2-2,0.5-2.9c0.3-0.9,0.7-1.6,1.3-2.2c0.5-0.6,1.2-1.1,1.9-1.4c0.8-0.3,1.6-0.5,2.6-0.5
		c1,0,1.9,0.2,2.7,0.5s1.4,0.9,2,1.5c0.5,0.7,1,1.5,1.2,2.4c0.3,0.9,0.4,2,0.4,3.1s-0.1,2.2-0.4,3.1c-0.3,0.9-0.7,1.7-1.2,2.4
		c-0.5,0.7-1.2,1.2-2,1.5c-0.8,0.4-1.7,0.5-2.6,0.5c-1,0-1.8-0.2-2.6-0.5c-0.8-0.3-1.4-0.8-1.9-1.4c-0.5-0.6-0.9-1.3-1.2-2.2
		c-0.3-0.9-0.5-1.8-0.5-2.9h-4.4v6.8h-1.4v-14.6h1.4v6.8H262.4z M268.7,127.3c0.8,0,1.5-0.1,2.1-0.4c0.6-0.3,1.1-0.7,1.5-1.3
		c0.4-0.6,0.7-1.2,0.9-2s0.3-1.7,0.3-2.7c0-1-0.1-1.9-0.3-2.6c-0.2-0.8-0.5-1.5-0.9-2c-0.4-0.6-0.9-1-1.5-1.3
		c-0.6-0.3-1.3-0.5-2.1-0.5s-1.5,0.2-2.1,0.5c-0.6,0.3-1.1,0.7-1.5,1.3c-0.4,0.6-0.7,1.2-0.9,2c-0.2,0.8-0.3,1.7-0.3,2.6
		c0,1,0.1,1.9,0.3,2.7s0.5,1.5,0.9,2c0.4,0.6,0.9,1,1.5,1.3C267.2,127.2,267.9,127.3,268.7,127.3z"/>
	<path class="st0" d="M289.9,114.7h-6.1v13.6h-1.4v-13.6h-6.1v-1.1h13.7V114.7z"/>
	<path class="st0" d="M312.6,113.6v14.6h-1.4v-11.8c0-0.1,0-0.3,0-0.4c0-0.2,0-0.3,0-0.5c-0.1,0.1-0.1,0.3-0.2,0.4
		c-0.1,0.1-0.1,0.2-0.2,0.3c0,0-0.2,0.2-0.4,0.6c-0.3,0.3-0.6,0.8-1,1.3s-0.9,1.2-1.4,1.9c-0.5,0.7-1.1,1.4-1.6,2.1
		c-1.3,1.7-2.7,3.6-4.3,5.8c-0.1,0.1-0.1,0.2-0.2,0.2c-0.1,0.1-0.2,0.1-0.3,0.1h-0.8v-14.6h1.4v11.8c0,0.1,0,0.3,0,0.4s0,0.3,0,0.5
		c0.1-0.1,0.1-0.3,0.2-0.4c0.1-0.1,0.1-0.2,0.2-0.3c0,0,0.1-0.2,0.4-0.5c0.3-0.3,0.6-0.8,1-1.3c0.4-0.6,0.9-1.2,1.4-1.9
		c0.5-0.7,1.1-1.4,1.6-2.1c1.3-1.7,2.7-3.6,4.3-5.8c0.1-0.1,0.1-0.2,0.2-0.3c0.1-0.1,0.2-0.1,0.3-0.1H312.6z"/>
	<path class="st0" d="M337.1,114.7H331v13.6h-1.4v-13.6h-6.1v-1.1h13.7V114.7z"/>
	<path class="st0" d="M339.7,120.4v0.3c0,1.1,0.1,2.1,0.4,2.9s0.6,1.5,1.1,2.1c0.5,0.6,1,1,1.7,1.3c0.7,0.3,1.4,0.4,2.2,0.4
		c0.7,0,1.4-0.1,1.9-0.2c0.5-0.2,1-0.3,1.4-0.5c0.4-0.2,0.7-0.4,0.9-0.5s0.4-0.2,0.5-0.2c0.1,0,0.2,0,0.3,0.1l0.4,0.5
		c-0.2,0.3-0.5,0.6-0.9,0.8s-0.8,0.5-1.3,0.7c-0.5,0.2-1,0.3-1.5,0.4c-0.5,0.1-1.1,0.2-1.6,0.2c-1,0-1.9-0.2-2.7-0.5
		c-0.8-0.3-1.5-0.9-2.1-1.5c-0.6-0.7-1-1.5-1.4-2.4c-0.3-1-0.5-2.1-0.5-3.3c0-1,0.1-2,0.4-2.9c0.3-0.9,0.7-1.7,1.3-2.3
		c0.6-0.6,1.3-1.1,2.1-1.5c0.8-0.4,1.7-0.5,2.8-0.5c0.8,0,1.6,0.1,2.3,0.4c0.7,0.3,1.3,0.7,1.8,1.2c0.5,0.5,0.9,1.2,1.2,2
		c0.3,0.8,0.4,1.7,0.4,2.7c0,0.2,0,0.4-0.1,0.4c-0.1,0.1-0.2,0.1-0.3,0.1H339.7z M349.4,119.5c0-0.8-0.1-1.5-0.3-2.1
		s-0.5-1.2-0.9-1.6s-0.9-0.8-1.4-1c-0.6-0.2-1.2-0.3-1.8-0.3c-0.8,0-1.4,0.1-2,0.4c-0.6,0.2-1.1,0.6-1.6,1s-0.8,1-1.1,1.6
		c-0.3,0.6-0.4,1.3-0.5,2.1H349.4z"/>
	<path class="st0" d="M366,128.3h-1.4v-13.6h-8.7v13.6h-1.4v-14.6H366V128.3z"/>
	<path class="st0" d="M382.8,128.3h-1.4v-13.5h-5.9c-0.1,1.9-0.3,3.6-0.5,5s-0.5,2.6-0.8,3.7c-0.3,1-0.7,1.8-1.1,2.5
		c-0.4,0.6-0.8,1.2-1.2,1.5c-0.4,0.4-0.9,0.6-1.3,0.8c-0.4,0.1-0.9,0.2-1.3,0.2c-0.2,0-0.4,0-0.6-0.1c-0.2,0-0.3-0.1-0.3-0.2v-0.9
		h0.6c0.4,0,0.7-0.1,1.1-0.2c0.4-0.1,0.7-0.4,1.1-0.8c0.4-0.4,0.7-0.9,1-1.5c0.3-0.6,0.6-1.5,0.9-2.5c0.3-1,0.5-2.2,0.7-3.7
		c0.2-1.4,0.3-3.1,0.4-5h8.5V128.3z"/>
	<path class="st0" d="M393.4,113.4c1,0,2,0.2,2.8,0.5s1.5,0.9,2.1,1.5c0.6,0.7,1,1.5,1.3,2.4c0.3,0.9,0.4,2,0.4,3.1
		s-0.1,2.2-0.4,3.1c-0.3,0.9-0.7,1.7-1.3,2.4c-0.6,0.7-1.3,1.2-2.1,1.5c-0.8,0.4-1.8,0.5-2.8,0.5s-2-0.2-2.8-0.5
		c-0.8-0.4-1.5-0.9-2.1-1.5c-0.6-0.7-1-1.4-1.3-2.4c-0.3-0.9-0.4-2-0.4-3.1s0.1-2.2,0.4-3.1c0.3-0.9,0.7-1.7,1.3-2.4
		c0.6-0.7,1.3-1.2,2.1-1.5C391.4,113.6,392.4,113.4,393.4,113.4z M393.4,127.3c0.9,0,1.6-0.1,2.3-0.4c0.7-0.3,1.2-0.7,1.6-1.3
		c0.4-0.6,0.8-1.2,1-2s0.3-1.7,0.3-2.7c0-1-0.1-1.9-0.3-2.6c-0.2-0.8-0.5-1.5-1-2c-0.4-0.6-1-1-1.6-1.3c-0.7-0.3-1.4-0.5-2.3-0.5
		s-1.6,0.2-2.3,0.5c-0.7,0.3-1.2,0.7-1.6,1.3c-0.4,0.6-0.8,1.2-1,2c-0.2,0.8-0.3,1.7-0.3,2.6c0,1,0.1,1.9,0.3,2.7s0.5,1.5,1,2
		c0.4,0.6,1,1,1.6,1.3C391.8,127.2,392.5,127.3,393.4,127.3z"/>
	<path class="st0" d="M416.9,113.6c0.9,0,1.6,0.1,2.3,0.3s1.1,0.4,1.5,0.7c0.4,0.3,0.7,0.7,0.8,1.1s0.3,0.8,0.3,1.3
		c0,0.3,0,0.7-0.1,1c-0.1,0.4-0.3,0.7-0.5,1c-0.2,0.3-0.6,0.6-0.9,0.9c-0.4,0.3-0.9,0.5-1.5,0.6c1.3,0.2,2.3,0.6,2.9,1.2
		c0.6,0.6,0.9,1.4,0.9,2.4c0,0.7-0.1,1.2-0.4,1.8c-0.3,0.5-0.6,0.9-1.1,1.3c-0.5,0.4-1,0.6-1.7,0.8c-0.7,0.2-1.4,0.3-2.2,0.3H412
		v-14.6H416.9z M413.4,114.6v5.6h3.5c0.5,0,1-0.1,1.5-0.2c0.5-0.1,0.8-0.3,1.2-0.6c0.3-0.3,0.6-0.6,0.8-0.9s0.3-0.8,0.3-1.2
		c0-0.3-0.1-0.7-0.2-1c-0.1-0.3-0.3-0.6-0.6-0.8c-0.3-0.2-0.7-0.4-1.1-0.6c-0.5-0.1-1-0.2-1.7-0.2H413.4z M417.2,127.3
		c0.6,0,1.2-0.1,1.7-0.2c0.5-0.1,0.9-0.4,1.3-0.6c0.3-0.3,0.6-0.6,0.8-1c0.2-0.4,0.3-0.8,0.3-1.3c0-0.4-0.1-0.8-0.2-1.2
		c-0.1-0.4-0.4-0.7-0.7-0.9s-0.7-0.5-1.2-0.6c-0.5-0.1-1.1-0.2-1.8-0.2h-3.9v6.1H417.2z"/>
	<path class="st0" d="M439.3,113.6c0.9,0,1.6,0.1,2.3,0.3s1.1,0.4,1.5,0.7c0.4,0.3,0.7,0.7,0.8,1.1s0.3,0.8,0.3,1.3
		c0,0.3,0,0.7-0.1,1c-0.1,0.4-0.3,0.7-0.5,1c-0.2,0.3-0.6,0.6-0.9,0.9c-0.4,0.3-0.9,0.5-1.5,0.6c1.3,0.2,2.3,0.6,2.9,1.2
		c0.6,0.6,0.9,1.4,0.9,2.4c0,0.7-0.1,1.2-0.4,1.8c-0.3,0.5-0.6,0.9-1.1,1.3c-0.5,0.4-1,0.6-1.7,0.8c-0.7,0.2-1.4,0.3-2.2,0.3h-5.2
		v-14.6H439.3z M435.8,114.6v5.6h3.5c0.5,0,1-0.1,1.5-0.2c0.5-0.1,0.8-0.3,1.2-0.6c0.3-0.3,0.6-0.6,0.8-0.9s0.3-0.8,0.3-1.2
		c0-0.3-0.1-0.7-0.2-1c-0.1-0.3-0.3-0.6-0.6-0.8c-0.3-0.2-0.7-0.4-1.1-0.6c-0.5-0.1-1-0.2-1.7-0.2H435.8z M439.6,127.3
		c0.6,0,1.2-0.1,1.7-0.2c0.5-0.1,0.9-0.4,1.3-0.6c0.3-0.3,0.6-0.6,0.8-1c0.2-0.4,0.3-0.8,0.3-1.3c0-0.4-0.1-0.8-0.2-1.2
		c-0.1-0.4-0.4-0.7-0.7-0.9s-0.7-0.5-1.2-0.6c-0.5-0.1-1.1-0.2-1.8-0.2h-3.9v6.1H439.6z"/>
	<path class="st0" d="M448.4,115.7c0.8-0.8,1.6-1.3,2.4-1.7c0.8-0.4,1.8-0.6,2.9-0.6c0.8,0,1.5,0.1,2.1,0.4c0.6,0.3,1.1,0.6,1.5,1.1
		c0.4,0.5,0.7,1,0.9,1.7s0.3,1.4,0.3,2.2v9.5h-0.6c-0.3,0-0.5-0.1-0.5-0.4l-0.2-1.9c-0.4,0.4-0.8,0.7-1.2,1.1
		c-0.4,0.3-0.8,0.6-1.2,0.8c-0.4,0.2-0.9,0.4-1.4,0.5c-0.5,0.1-1,0.2-1.6,0.2c-0.5,0-1-0.1-1.5-0.2s-0.9-0.4-1.3-0.7
		s-0.7-0.7-0.9-1.2s-0.3-1-0.3-1.7c0-0.6,0.2-1.2,0.5-1.7c0.4-0.5,0.9-1,1.7-1.4c0.8-0.4,1.7-0.7,2.9-0.9c1.2-0.2,2.6-0.4,4.3-0.4
		v-1.5c0-1.4-0.3-2.4-0.9-3.1c-0.6-0.7-1.5-1.1-2.6-1.1c-0.7,0-1.3,0.1-1.8,0.3c-0.5,0.2-0.9,0.4-1.3,0.6c-0.3,0.2-0.6,0.5-0.8,0.6
		c-0.2,0.2-0.4,0.3-0.5,0.3c-0.1,0-0.2,0-0.3-0.1c-0.1,0-0.1-0.1-0.2-0.2L448.4,115.7z M457,121.2c-1.4,0-2.6,0.2-3.6,0.3
		c-1,0.2-1.8,0.4-2.5,0.7c-0.7,0.3-1.1,0.6-1.5,1.1c-0.3,0.4-0.5,0.9-0.5,1.4c0,0.5,0.1,0.9,0.2,1.3c0.2,0.4,0.4,0.7,0.6,0.9
		c0.3,0.2,0.6,0.4,0.9,0.5c0.4,0.1,0.7,0.2,1.1,0.2c0.6,0,1.1-0.1,1.6-0.2c0.5-0.1,0.9-0.3,1.3-0.5c0.4-0.2,0.8-0.5,1.1-0.8
		c0.4-0.3,0.7-0.6,1-1V121.2z"/>
	<path class="st0" d="M482.1,113.6v14.6H463v-14.6h1.4v13.6h7.4v-13.6h1.4v13.6h7.4v-13.6H482.1z"/>
	<path class="st0" d="M487.4,120.4v0.3c0,1.1,0.1,2.1,0.4,2.9s0.6,1.5,1.1,2.1c0.5,0.6,1,1,1.7,1.3c0.7,0.3,1.4,0.4,2.2,0.4
		c0.7,0,1.4-0.1,1.9-0.2c0.5-0.2,1-0.3,1.4-0.5c0.4-0.2,0.7-0.4,0.9-0.5s0.4-0.2,0.5-0.2c0.1,0,0.2,0,0.3,0.1l0.4,0.5
		c-0.2,0.3-0.5,0.6-0.9,0.8s-0.8,0.5-1.3,0.7c-0.5,0.2-1,0.3-1.5,0.4c-0.5,0.1-1.1,0.2-1.6,0.2c-1,0-1.9-0.2-2.7-0.5
		c-0.8-0.3-1.5-0.9-2.1-1.5c-0.6-0.7-1-1.5-1.4-2.4c-0.3-1-0.5-2.1-0.5-3.3c0-1,0.1-2,0.4-2.9c0.3-0.9,0.7-1.7,1.3-2.3
		c0.6-0.6,1.3-1.1,2.1-1.5c0.8-0.4,1.7-0.5,2.8-0.5c0.8,0,1.6,0.1,2.3,0.4c0.7,0.3,1.3,0.7,1.8,1.2c0.5,0.5,0.9,1.2,1.2,2
		c0.3,0.8,0.4,1.7,0.4,2.7c0,0.2,0,0.4-0.1,0.4c-0.1,0.1-0.2,0.1-0.3,0.1H487.4z M497.2,119.5c0-0.8-0.1-1.5-0.3-2.1
		s-0.5-1.2-0.9-1.6s-0.9-0.8-1.4-1c-0.6-0.2-1.2-0.3-1.8-0.3c-0.8,0-1.4,0.1-2,0.4c-0.6,0.2-1.1,0.6-1.6,1s-0.8,1-1.1,1.6
		c-0.3,0.6-0.4,1.3-0.5,2.1H497.2z"/>
	<path class="st0" d="M517.8,113.5v14.7h-1.3v-11.8c0-0.2,0-0.3,0-0.5c0-0.2,0-0.4,0.1-0.5l-6,10.1c0,0.1-0.1,0.1-0.2,0.2
		s-0.2,0.1-0.3,0.1H510c-0.1,0-0.2,0-0.3-0.1s-0.1-0.1-0.2-0.2l-6.2-10.1c0,0.2,0.1,0.4,0.1,0.6s0,0.4,0,0.6v11.8h-1.3v-14.7h1
		c0.1,0,0.2,0,0.3,0.1c0.1,0,0.2,0.1,0.2,0.3l5.9,9.6c0.1,0.2,0.2,0.5,0.4,0.8c0.1-0.3,0.2-0.5,0.3-0.8l5.8-9.6
		c0.1-0.1,0.1-0.2,0.2-0.3c0.1,0,0.2-0.1,0.3-0.1H517.8z"/>
	<path class="st0" d="M545.2,127.2v5.8c0,0.3-0.1,0.5-0.4,0.5h-0.8v-5.2h-14v4.8c0,0.1,0,0.2-0.1,0.3c-0.1,0.1-0.2,0.1-0.3,0.1h-0.9
		v-6.3h0.6c0.4,0,0.7-0.1,1.1-0.2c0.3-0.1,0.7-0.4,1-0.8c0.3-0.4,0.6-0.9,0.9-1.5c0.3-0.7,0.6-1.5,0.8-2.5c0.2-1,0.4-2.2,0.6-3.6
		c0.2-1.4,0.3-3.1,0.4-4.9h8.5v13.6H545.2z M541.1,127.2v-12.5h-5.9c-0.1,2-0.3,3.6-0.5,5.1c-0.2,1.4-0.5,2.6-0.8,3.6
		c-0.3,1-0.6,1.8-1,2.4c-0.3,0.6-0.7,1.1-1.1,1.4H541.1z"/>
	<path class="st0" d="M553.8,113.4c1,0,2,0.2,2.8,0.5s1.5,0.9,2.1,1.5c0.6,0.7,1,1.5,1.3,2.4c0.3,0.9,0.4,2,0.4,3.1
		s-0.1,2.2-0.4,3.1c-0.3,0.9-0.7,1.7-1.3,2.4c-0.6,0.7-1.3,1.2-2.1,1.5c-0.8,0.4-1.8,0.5-2.8,0.5s-2-0.2-2.8-0.5
		c-0.8-0.4-1.5-0.9-2.1-1.5c-0.6-0.7-1-1.4-1.3-2.4c-0.3-0.9-0.4-2-0.4-3.1s0.1-2.2,0.4-3.1c0.3-0.9,0.7-1.7,1.3-2.4
		c0.6-0.7,1.3-1.2,2.1-1.5C551.8,113.6,552.8,113.4,553.8,113.4z M553.8,127.3c0.9,0,1.6-0.1,2.3-0.4c0.7-0.3,1.2-0.7,1.6-1.3
		c0.4-0.6,0.8-1.2,1-2s0.3-1.7,0.3-2.7c0-1-0.1-1.9-0.3-2.6c-0.2-0.8-0.5-1.5-1-2c-0.4-0.6-1-1-1.6-1.3c-0.7-0.3-1.4-0.5-2.3-0.5
		s-1.6,0.2-2.3,0.5c-0.7,0.3-1.2,0.7-1.6,1.3c-0.4,0.6-0.8,1.2-1,2c-0.2,0.8-0.3,1.7-0.3,2.6c0,1,0.1,1.9,0.3,2.7s0.5,1.5,1,2
		c0.4,0.6,1,1,1.6,1.3C552.2,127.2,553,127.3,553.8,127.3z"/>
	<path class="st0" d="M580,113.5v14.7h-1.3v-11.8c0-0.2,0-0.3,0-0.5c0-0.2,0-0.4,0.1-0.5l-6,10.1c0,0.1-0.1,0.1-0.2,0.2
		s-0.2,0.1-0.3,0.1h-0.2c-0.1,0-0.2,0-0.3-0.1s-0.1-0.1-0.2-0.2l-6.2-10.1c0,0.2,0.1,0.4,0.1,0.6s0,0.4,0,0.6v11.8h-1.3v-14.7h1
		c0.1,0,0.2,0,0.3,0.1c0.1,0,0.2,0.1,0.2,0.3l5.9,9.6c0.1,0.2,0.2,0.5,0.4,0.8c0.1-0.3,0.2-0.5,0.3-0.8l5.8-9.6
		c0.1-0.1,0.1-0.2,0.2-0.3c0.1,0,0.2-0.1,0.3-0.1H580z"/>
	<path class="st0" d="M585.3,120.4v0.3c0,1.1,0.1,2.1,0.4,2.9s0.6,1.5,1.1,2.1c0.5,0.6,1,1,1.7,1.3c0.7,0.3,1.4,0.4,2.2,0.4
		c0.7,0,1.4-0.1,1.9-0.2c0.5-0.2,1-0.3,1.4-0.5c0.4-0.2,0.7-0.4,0.9-0.5s0.4-0.2,0.5-0.2c0.1,0,0.2,0,0.3,0.1l0.4,0.5
		c-0.2,0.3-0.5,0.6-0.9,0.8s-0.8,0.5-1.3,0.7c-0.5,0.2-1,0.3-1.5,0.4c-0.5,0.1-1.1,0.2-1.6,0.2c-1,0-1.9-0.2-2.7-0.5
		c-0.8-0.3-1.5-0.9-2.1-1.5c-0.6-0.7-1-1.5-1.4-2.4c-0.3-1-0.5-2.1-0.5-3.3c0-1,0.1-2,0.4-2.9c0.3-0.9,0.7-1.7,1.3-2.3
		c0.6-0.6,1.3-1.1,2.1-1.5c0.8-0.4,1.7-0.5,2.8-0.5c0.8,0,1.6,0.1,2.3,0.4c0.7,0.3,1.3,0.7,1.8,1.2c0.5,0.5,0.9,1.2,1.2,2
		c0.3,0.8,0.4,1.7,0.4,2.7c0,0.2,0,0.4-0.1,0.4c-0.1,0.1-0.2,0.1-0.3,0.1H585.3z M595.1,119.5c0-0.8-0.1-1.5-0.3-2.1
		s-0.5-1.2-0.9-1.6s-0.9-0.8-1.4-1c-0.6-0.2-1.2-0.3-1.8-0.3c-0.8,0-1.4,0.1-2,0.4c-0.6,0.2-1.1,0.6-1.6,1s-0.8,1-1.1,1.6
		c-0.3,0.6-0.4,1.3-0.5,2.1H595.1z"/>
</g>
</svg>
